<mxfile host="65bd71144e">
    <diagram id="9S0SAfzQht5dTiIRogzK" name="PÃ¡gina-1">
        <mxGraphModel dx="798" dy="354" grid="1" gridSize="10" guides="1" tooltips="1" connect="1" arrows="1" fold="1" page="1" pageScale="1" pageWidth="827" pageHeight="1169" math="0" shadow="0">
            <root>
                <mxCell id="0"/>
                <mxCell id="1" parent="0"/>
                <mxCell id="4" value="" style="edgeStyle=none;html=1;" edge="1" parent="1" source="2" target="3">
                    <mxGeometry relative="1" as="geometry"/>
                </mxCell>
                <mxCell id="2" value="INICIO" style="ellipse;whiteSpace=wrap;html=1;fillColor=#d80073;fontColor=#ffffff;strokeColor=#A50040;" vertex="1" parent="1">
                    <mxGeometry x="350" y="10" width="120" height="80" as="geometry"/>
                </mxCell>
                <mxCell id="6" value="" style="edgeStyle=none;html=1;" edge="1" parent="1" source="3" target="5">
                    <mxGeometry relative="1" as="geometry"/>
                </mxCell>
                <mxCell id="3" value="m,b" style="shape=parallelogram;perimeter=parallelogramPerimeter;whiteSpace=wrap;html=1;fixedSize=1;fillColor=#a20025;fontColor=#ffffff;strokeColor=#6F0000;" vertex="1" parent="1">
                    <mxGeometry x="350" y="150" width="120" height="60" as="geometry"/>
                </mxCell>
                <mxCell id="7" style="edgeStyle=none;html=1;" edge="1" parent="1" source="5">
                    <mxGeometry relative="1" as="geometry">
                        <mxPoint x="410" y="400" as="targetPoint"/>
                    </mxGeometry>
                </mxCell>
                <mxCell id="5" value="x=(-1*b)/m" style="whiteSpace=wrap;html=1;aspect=fixed;fillColor=#6a00ff;fontColor=#ffffff;strokeColor=#3700CC;" vertex="1" parent="1">
                    <mxGeometry x="360" y="260" width="100" height="100" as="geometry"/>
                </mxCell>
                <mxCell id="9" style="edgeStyle=none;html=1;" edge="1" parent="1" source="8">
                    <mxGeometry relative="1" as="geometry">
                        <mxPoint x="560" y="520" as="targetPoint"/>
                        <Array as="points">
                            <mxPoint x="560" y="440"/>
                        </Array>
                    </mxGeometry>
                </mxCell>
                <mxCell id="10" style="edgeStyle=none;html=1;" edge="1" parent="1" source="8" target="11">
                    <mxGeometry relative="1" as="geometry">
                        <mxPoint x="280" y="520" as="targetPoint"/>
                        <Array as="points">
                            <mxPoint x="280" y="440"/>
                        </Array>
                    </mxGeometry>
                </mxCell>
                <mxCell id="8" value="x" style="rhombus;whiteSpace=wrap;html=1;fillColor=#1ba1e2;fontColor=#ffffff;strokeColor=#006EAF;" vertex="1" parent="1">
                    <mxGeometry x="370" y="400" width="80" height="80" as="geometry"/>
                </mxCell>
                <mxCell id="13" style="edgeStyle=none;html=1;" edge="1" parent="1" source="11">
                    <mxGeometry relative="1" as="geometry">
                        <mxPoint x="420" y="730" as="targetPoint"/>
                        <Array as="points">
                            <mxPoint x="280" y="650"/>
                            <mxPoint x="420" y="650"/>
                        </Array>
                    </mxGeometry>
                </mxCell>
                <mxCell id="11" value="&lt;span&gt;no existe una solucion&lt;/span&gt;" style="rounded=0;whiteSpace=wrap;html=1;fillColor=#0050ef;fontColor=#ffffff;strokeColor=#001DBC;" vertex="1" parent="1">
                    <mxGeometry x="220" y="520" width="120" height="60" as="geometry"/>
                </mxCell>
                <mxCell id="14" style="edgeStyle=none;html=1;" edge="1" parent="1" source="12">
                    <mxGeometry relative="1" as="geometry">
                        <mxPoint x="410" y="650" as="targetPoint"/>
                        <Array as="points">
                            <mxPoint x="570" y="650"/>
                        </Array>
                    </mxGeometry>
                </mxCell>
                <mxCell id="12" value="Si existe una solucion, la cual es el resultado que nos da x" style="rounded=0;whiteSpace=wrap;html=1;fillColor=#0050ef;fontColor=#ffffff;strokeColor=#001DBC;" vertex="1" parent="1">
                    <mxGeometry x="510" y="520" width="120" height="60" as="geometry"/>
                </mxCell>
                <mxCell id="15" value="v" style="text;html=1;align=center;verticalAlign=middle;resizable=0;points=[];autosize=1;strokeColor=none;fillColor=none;" vertex="1" parent="1">
                    <mxGeometry x="490" y="420" width="20" height="20" as="geometry"/>
                </mxCell>
                <mxCell id="16" value="f" style="text;html=1;align=center;verticalAlign=middle;resizable=0;points=[];autosize=1;strokeColor=none;fillColor=none;" vertex="1" parent="1">
                    <mxGeometry x="320" y="420" width="20" height="20" as="geometry"/>
                </mxCell>
                <mxCell id="19" value="" style="edgeStyle=none;html=1;" edge="1" parent="1" source="17" target="18">
                    <mxGeometry relative="1" as="geometry"/>
                </mxCell>
                <mxCell id="17" value="x" style="shape=document;whiteSpace=wrap;html=1;boundedLbl=1;fillColor=#60a917;fontColor=#ffffff;strokeColor=#2D7600;" vertex="1" parent="1">
                    <mxGeometry x="360" y="730" width="120" height="70" as="geometry"/>
                </mxCell>
                <mxCell id="18" value="FIN" style="ellipse;whiteSpace=wrap;html=1;fillColor=#6a00ff;fontColor=#ffffff;strokeColor=#3700CC;" vertex="1" parent="1">
                    <mxGeometry x="360" y="860" width="120" height="60" as="geometry"/>
                </mxCell>
            </root>
        </mxGraphModel>
    </diagram>
</mxfile>